<svg version="1.1" xmlns="http://www.w3.org/2000/svg" xmlns:xlink="http://www.w3.org/1999/xlink" width="34.17311" height="34.17311" viewBox="0,0,34.17311,34.17311"><defs><radialGradient cx="236.70491" cy="178.69546" r="13.37795" gradientUnits="userSpaceOnUse" id="color-1"><stop offset="0" stop-color="#ffffff"/><stop offset="1" stop-color="#000000"/></radialGradient></defs><g transform="translate(-222.91344,-162.91344)"><g data-paper-data="{&quot;isPaintingLayer&quot;:true}" stroke-miterlimit="10" stroke-dasharray="" stroke-dashoffset="0" style="mix-blend-mode: normal"><path d="M229.98311,162.91345h20.03379c3.9166,0 7.06966,3.15307 7.06966,7.06966v20.03379c0,3.91659 -3.15306,7.06966 -7.06966,7.06966h-20.03379c-3.91659,0 -7.06966,-3.15307 -7.06966,-7.06966v-20.03379c0,-3.91659 3.15307,-7.06966 7.06966,-7.06966z" fill="#000400" fill-rule="evenodd" stroke="none" stroke-width="4.43922" stroke-linecap="round" stroke-linejoin="round"/><path d="M250.20897,192.4928c0.64243,-0.56703 1.03466,-1.31093 1.16214,-2.08035c0.548,-3.30735 -4.18612,-3.84393 -7.39829,-5.56937c-3.13142,-1.68205 -15.38757,-18.22104 -15.38757,-18.22104l9.03184,15.78676c0,0 2.60677,4.62631 4.41911,6.37232c1.69591,1.63385 5.43228,4.5818 5.7416,4.59418c0.84586,0.03386 1.72329,-0.25771 2.43118,-0.88251z" data-paper-data="{&quot;index&quot;:null}" fill="url(#color-1)" fill-rule="nonzero" stroke="#000000" stroke-width="0" stroke-linecap="butt" stroke-linejoin="miter"/></g></g></svg>