<svg version="1.1" xmlns="http://www.w3.org/2000/svg" xmlns:xlink="http://www.w3.org/1999/xlink" width="497.4955" height="383.38138" viewBox="0,0,497.4955,383.38138"><g transform="translate(8.74775,11.69069)"><g data-paper-data="{&quot;isPaintingLayer&quot;:true}" fill-rule="nonzero" stroke-linejoin="miter" stroke-miterlimit="10" stroke-dasharray="" stroke-dashoffset="0" style="mix-blend-mode: normal"><path d="M-7.74775,370.69069v-381.38138h495.4955v381.38138z" fill="#000000" stroke="#000000" stroke-width="2" stroke-linecap="butt"/><text transform="translate(103.9527,64.14713) scale(1.41099,1.41099)" font-size="40" xml:space="preserve" fill="#ff0000" fill-rule="nonzero" stroke="none" stroke-width="1" stroke-linecap="butt" stroke-linejoin="miter" stroke-miterlimit="10" stroke-dasharray="" stroke-dashoffset="0" font-family="Sans Serif" font-weight="normal" text-anchor="start" style="mix-blend-mode: normal"><tspan x="0" dy="0">WARNING</tspan></text><path d="M393.46384,272.17694h21.20069" fill="none" stroke="#000000" stroke-width="2" stroke-linecap="round"/><path d="M371.95107,214.60293c0,0 5.66454,-4.36451 9.9607,-5.37291c4.29616,-1.0084 10.41403,0.5905 10.41403,0.5905c0,0 -6.7868,-0.0509 -10.10458,0.72787c-3.46721,0.81384 -10.27015,4.05455 -10.27015,4.05455z" fill="#000000" stroke="none" stroke-width="0" stroke-linecap="butt"/><path d="M425.93269,210.54839c-3.31778,-0.77876 -10.10458,-0.72787 -10.10458,-0.72787c0,0 6.11787,-1.5989 10.41403,-0.5905c4.29615,1.0084 9.9607,5.37291 9.9607,5.37291c0,0 -6.80294,-3.24071 -10.27015,-4.05455z" data-paper-data="{&quot;index&quot;:null}" fill="#000000" stroke="none" stroke-width="0" stroke-linecap="butt"/><text transform="translate(43.29401,89.50464) scale(0.5,0.5)" font-size="40" xml:space="preserve" fill="#ffffff" fill-rule="nonzero" stroke="none" stroke-width="1" stroke-linecap="butt" stroke-linejoin="miter" stroke-miterlimit="10" stroke-dasharray="" stroke-dashoffset="0" font-family="Sans Serif" font-weight="normal" text-anchor="start" style="mix-blend-mode: normal"><tspan x="0" dy="0">If you are sensitive to gore or other cruel</tspan><tspan x="0" dy="46.15px">elements, please leave immediately.</tspan><tspan x="0" dy="46.15px"> </tspan><tspan x="0" dy="46.15px"> </tspan></text><text transform="translate(32.03726,188.01875) scale(0.69502,0.69502)" font-size="40" xml:space="preserve" fill="#ff0000" fill-rule="nonzero" stroke="none" stroke-width="1" stroke-linecap="butt" stroke-linejoin="miter" stroke-miterlimit="10" stroke-dasharray="" stroke-dashoffset="0" font-family="Sans Serif" font-weight="normal" text-anchor="start" style="mix-blend-mode: normal"><tspan x="0" dy="0">PLEASE DO NOT REPORT THIS :)</tspan></text><text transform="translate(174.29401,344.50464) scale(0.5,0.5)" font-size="40" xml:space="preserve" fill="#fff3f3" fill-rule="nonzero" stroke="none" stroke-width="1" stroke-linecap="butt" stroke-linejoin="miter" stroke-miterlimit="10" stroke-dasharray="" stroke-dashoffset="0" font-family="Sans Serif" font-weight="normal" text-anchor="start" style="mix-blend-mode: normal"><tspan x="0" dy="0">click to move</tspan></text></g></g></svg>