<svg version="1.1" xmlns="http://www.w3.org/2000/svg" xmlns:xlink="http://www.w3.org/1999/xlink" width="130.33333" height="236.43773" viewBox="0,0,130.33333,236.43773"><defs><linearGradient x1="240.00014" y1="177.90019" x2="240.00014" y2="210.65019" gradientUnits="userSpaceOnUse" id="color-1"><stop offset="0" stop-color="#000000"/><stop offset="1" stop-color="#454747"/></linearGradient><linearGradient x1="193.16682" y1="224.50023" x2="193.16682" y2="354.83357" gradientUnits="userSpaceOnUse" id="color-2"><stop offset="0" stop-color="#000000"/><stop offset="1" stop-color="#402200"/></linearGradient><linearGradient x1="288.16677" y1="225.16686" x2="288.16677" y2="355.50019" gradientUnits="userSpaceOnUse" id="color-3"><stop offset="0" stop-color="#000000"/><stop offset="1" stop-color="#402200"/></linearGradient><linearGradient x1="240.00017" y1="216.33356" x2="240.00017" y2="235.66686" gradientUnits="userSpaceOnUse" id="color-4"><stop offset="0" stop-color="#1a0e00"/><stop offset="1" stop-color="#593000"/></linearGradient><linearGradient x1="240.97515" y1="207.80019" x2="240.97515" y2="219.20018" gradientUnits="userSpaceOnUse" id="color-5"><stop offset="0" stop-color="#18191a"/><stop offset="1" stop-color="#5e6061"/></linearGradient><linearGradient x1="240.00015" y1="119.06246" x2="240.00015" y2="196.93791" gradientUnits="userSpaceOnUse" id="color-6"><stop offset="0" stop-color="#17171a"/><stop offset="1" stop-color="#5e6061"/></linearGradient></defs><g transform="translate(-174.8335,-119.06245)"><g data-paper-data="{&quot;isPaintingLayer&quot;:true}" stroke-miterlimit="10" stroke-dasharray="" stroke-dashoffset="0" style="mix-blend-mode: normal"><path d="M232.90014,210.65019v-32.75h14.2v32.75z" fill="url(#color-1)" fill-rule="nonzero" stroke="#000000" stroke-width="0" stroke-linecap="butt" stroke-linejoin="miter"/><path d="M199.00015,354.83357h-11.66666v-130.33333h11.66666z" fill="url(#color-2)" fill-rule="nonzero" stroke="#000000" stroke-width="0" stroke-linecap="butt" stroke-linejoin="miter"/><path d="M273.80752,220.18629c2.60841,14.75494 2.41346,53.09265 2.41346,53.09265l-6.32001,-1.83611c0,0 -0.24257,-44.68832 -1.50384,-51.18645c0.48555,-2.37926 0.55402,-5.18461 0.03104,-7.82461c2.02632,0.70771 4.70813,3.95769 5.37935,7.75452z" fill="#000000" fill-rule="nonzero" stroke="#000000" stroke-width="0" stroke-linecap="butt" stroke-linejoin="miter"/><path d="M294.00005,355.50019h-11.66667v-130.33333h11.66667z" fill="url(#color-3)" fill-rule="nonzero" stroke="#000000" stroke-width="0" stroke-linecap="butt" stroke-linejoin="miter"/><path d="M174.83351,235.66686v-19.33333h130.33333v19.33333z" fill="url(#color-4)" fill-rule="nonzero" stroke="#000000" stroke-width="0" stroke-linecap="butt" stroke-linejoin="miter"/><path d="M204.50015,219.20018l5.73764,-11.4h61.26981l5.94255,11.4z" fill="url(#color-5)" fill-rule="nonzero" stroke="#000000" stroke-width="0" stroke-linecap="butt" stroke-linejoin="miter"/><path d="M213.29815,119.06246h53.404c8.92534,0 16.1107,7.18538 16.1107,16.1107v45.654c0,8.92532 -7.18535,16.1107 -16.1107,16.1107h-53.404c-8.92532,0 -16.1107,-7.18538 -16.1107,-16.1107v-45.654c0,-8.92532 7.18538,-16.1107 16.1107,-16.1107z" fill="url(#color-6)" fill-rule="evenodd" stroke="#000000" stroke-width="0" stroke-linecap="round" stroke-linejoin="round"/><path d="M218.28773,126.33839h43.4249c7.25755,0 13.10025,5.84271 13.10025,13.10025v37.12307c0,7.25753 -5.8427,13.10025 -13.10025,13.10025h-43.4249c-7.25753,0 -13.10025,-5.84271 -13.10025,-13.10025v-37.12307c0,-7.25753 5.84271,-13.10025 13.10025,-13.10025z" fill="#000000" fill-rule="evenodd" stroke="#000000" stroke-width="2" stroke-linecap="round" stroke-linejoin="round"/><path d="M216.10003,156.80004c0,-12.92346 10.47654,-23.4 23.4,-23.4c12.92346,0 23.4,10.47654 23.4,23.4c0,12.92346 -10.47654,23.4 -23.4,23.4c-12.92346,0 -23.4,-10.47654 -23.4,-23.4z" fill="none" fill-rule="nonzero" stroke="#808080" stroke-width="2" stroke-linecap="butt" stroke-linejoin="miter"/><path d="M230.87501,171.04177l18.83334,3" fill="none" fill-rule="nonzero" stroke="#808080" stroke-width="2" stroke-linecap="round" stroke-linejoin="miter"/><path d="M247.87501,159.09733l-0.5,-12.66666" fill="none" fill-rule="nonzero" stroke="#808080" stroke-width="2" stroke-linecap="round" stroke-linejoin="miter"/><path d="M253.36668,156.83342l1.06666,-2.8" fill="none" fill-rule="nonzero" stroke="#808080" stroke-width="2" stroke-linecap="round" stroke-linejoin="miter"/><path d="M226.16668,157.63342l-0.26667,-1.86667l4.64167,3.44169l-0.5,-12.66666" fill="none" fill-rule="nonzero" stroke="#808080" stroke-width="2" stroke-linecap="round" stroke-linejoin="miter"/><path d="M208.83336,137.97505v-1.16667h12.5v1.16667z" fill="none" fill-rule="nonzero" stroke="#808080" stroke-width="2" stroke-linecap="butt" stroke-linejoin="miter"/><path d="M240.41669,135.41676l21.33331,-2.66667" fill="none" fill-rule="nonzero" stroke="#808080" stroke-width="2" stroke-linecap="round" stroke-linejoin="miter"/><path d="M256.41669,166.08344l13,-1" fill="none" fill-rule="nonzero" stroke="#808080" stroke-width="2" stroke-linecap="round" stroke-linejoin="miter"/><path d="M234.08334,140.75009l14.33334,2.66667" fill="none" fill-rule="nonzero" stroke="#808080" stroke-width="2" stroke-linecap="round" stroke-linejoin="miter"/><path d="M214.75,160.41676l12.66667,6.33333" fill="none" fill-rule="nonzero" stroke="#808080" stroke-width="2" stroke-linecap="round" stroke-linejoin="miter"/><path d="M219.75,173.08344l9.66667,1.66666" fill="none" fill-rule="nonzero" stroke="#808080" stroke-width="2" stroke-linecap="round" stroke-linejoin="miter"/><path d="M216.41667,145.08344l12.33333,-2.66667" fill="none" fill-rule="nonzero" stroke="#808080" stroke-width="2" stroke-linecap="round" stroke-linejoin="miter"/></g></g></svg>