<svg version="1.1" xmlns="http://www.w3.org/2000/svg" xmlns:xlink="http://www.w3.org/1999/xlink" width="162.57377" height="332.15241" viewBox="0,0,162.57377,332.15241"><defs><linearGradient x1="240.00008" y1="175.50001" x2="240.00008" y2="307.50001" gradientUnits="userSpaceOnUse" id="color-1"><stop offset="0" stop-color="#000000"/><stop offset="1" stop-color="#1f6625"/></linearGradient><linearGradient x1="231.69447" y1="77.45252" x2="224.40756" y2="207.24594" gradientUnits="userSpaceOnUse" id="color-2"><stop offset="0" stop-color="#071a09"/><stop offset="1" stop-color="#26802e"/></linearGradient><linearGradient x1="273.41375" y1="76.40735" x2="268.38242" y2="166.02487" gradientUnits="userSpaceOnUse" id="color-3"><stop offset="0" stop-color="#000000"/><stop offset="1" stop-color="#331b00"/></linearGradient><linearGradient x1="180.73991" y1="71.89001" x2="183.83295" y2="152.89058" gradientUnits="userSpaceOnUse" id="color-4"><stop offset="0" stop-color="#000000"/><stop offset="1" stop-color="#1a0e00"/></linearGradient><linearGradient x1="184.70852" y1="75.34456" x2="188.07398" y2="163.47954" gradientUnits="userSpaceOnUse" id="color-5"><stop offset="0" stop-color="#000000"/><stop offset="1" stop-color="#331b00"/></linearGradient><linearGradient x1="181.59143" y1="72.31903" x2="185.82511" y2="183.19068" gradientUnits="userSpaceOnUse" id="color-6"><stop offset="0" stop-color="#000000"/><stop offset="1" stop-color="#4d2900"/></linearGradient><linearGradient x1="229.7192" y1="80.297" x2="231.16233" y2="118.08995" gradientUnits="userSpaceOnUse" id="color-7"><stop offset="0" stop-color="#000000"/><stop offset="1" stop-color="#1a0e00"/></linearGradient><linearGradient x1="259.53412" y1="72.71836" x2="261.98973" y2="137.02619" gradientUnits="userSpaceOnUse" id="color-8"><stop offset="0" stop-color="#000000"/><stop offset="1" stop-color="#4d2900"/></linearGradient><linearGradient x1="202.77925" y1="76.38137" x2="205.52914" y2="148.39561" gradientUnits="userSpaceOnUse" id="color-9"><stop offset="0" stop-color="#000000"/><stop offset="1" stop-color="#4d2900"/></linearGradient><radialGradient cx="253.74351" cy="139.41619" r="23.48065" gradientUnits="userSpaceOnUse" id="color-10"><stop offset="0" stop-color="#808080"/><stop offset="1" stop-color="#1a0000"/></radialGradient><linearGradient x1="204.02979" y1="113.8766" x2="201.43967" y2="160.01152" gradientUnits="userSpaceOnUse" id="color-11"><stop offset="0" stop-color="#010401" stop-opacity="0"/><stop offset="1" stop-color="#010401" stop-opacity="0.49989"/></linearGradient><radialGradient cx="200.29746" cy="135.64448" r="23.48065" gradientUnits="userSpaceOnUse" id="color-12"><stop offset="0" stop-color="#808080"/><stop offset="1" stop-color="#1a0000"/></radialGradient></defs><g transform="translate(-143.40029,-67.46009)"><g data-paper-data="{&quot;isPaintingLayer&quot;:true}" fill-rule="nonzero" stroke-linejoin="miter" stroke-miterlimit="10" stroke-dasharray="" stroke-dashoffset="0" style="mix-blend-mode: normal"><path d="M159.28377,399.61251v-267.22501h123.18203v267.22501z" fill-opacity="0.01" fill="#000000" stroke="none" stroke-width="0" stroke-linecap="butt"/><g fill="#000000" stroke="#000000" stroke-width="0" stroke-linecap="butt"><path d="M265.78526,224.73895c-12.97342,-0.30513 -18.28664,-121.45311 -18.28664,-121.45311l12.52052,-2.62799c0,0 18.35377,124.37717 5.76613,124.0811z" data-paper-data="{&quot;index&quot;:null}"/><path d="M192.53755,86.17742l12.7639,0.86732c0,0 12.77919,138.67168 -0.02673,140.77195c-12.42512,2.03782 -12.73717,-141.63926 -12.73717,-141.63926z"/><path d="M195.9995,219.21114c-12.95281,-0.79201 -11.85779,-105.1294 -11.85779,-105.1294l12.61035,-2.15605c0,0 11.81509,108.05393 -0.75256,107.28547z" data-paper-data="{&quot;index&quot;:null}"/><path d="M179.60342,209.57656c-11.96852,-1.18812 -5.98872,-97.58938 -5.98872,-97.58938l12.68295,-1.67699c0,0 5.8353,100.51018 -6.69424,99.26637z" data-paper-data="{&quot;index&quot;:null}"/><path d="M274.30877,212.78464c-12.97342,-0.30513 -16.40915,-108.8865 -16.40915,-108.8865l12.52051,-2.62799c0,0 16.47628,111.81057 3.88864,111.51451z" data-paper-data="{&quot;index&quot;:null}"/><path d="M287.0338,198.92598c-12.96551,0.54615 -24.44452,-77.64108 -24.44452,-77.64108l12.32126,-3.44327c0,0 24.70322,80.55444 12.12325,81.08435z" data-paper-data="{&quot;index&quot;:null}"/><path d="M289.40691,176.24558c-7.08303,-1.49653 1.85839,-14.76387 -2.78507,-26.90999c-3.98324,-10.41913 2.09905,-15.50572 6.08283,-5.0868c3.72256,9.73575 4.69868,33.68631 -3.29776,31.99679z" data-paper-data="{&quot;index&quot;:null}"/></g><path d="M206.75008,307.5l15.14285,-131.8421l37.78325,-0.15789l13.57389,132z" fill="url(#color-1)" stroke="#000000" stroke-width="0" stroke-linecap="butt"/><path d="M164.17848,134.05528c1.8667,-33.24949 32.09464,-58.59142 67.51599,-56.60277c35.42134,1.98864 62.62276,30.55479 60.75605,63.80427c-1.8667,33.24949 -34.4041,67.59542 -64.04918,66.21221c-25.25044,-1.17816 -66.08956,-40.16422 -64.22285,-73.41371z" fill="url(#color-2)" stroke="#000000" stroke-width="0" stroke-linecap="butt"/><path d="M177.52159,135.15108c0.72691,-12.94761 11.81231,-22.85445 24.75991,-22.12755c12.94761,0.72691 22.85445,11.81231 22.12755,24.75991c-0.72691,12.94761 -11.81231,22.85445 -24.75991,22.12755c-12.94761,-0.72691 -22.85445,-11.81231 -22.12755,-24.75991z" fill="#000000" stroke="#000000" stroke-width="0" stroke-linecap="butt"/><path d="M254.07185,162.96641c-12.94761,-0.72691 -22.85445,-11.81231 -22.12755,-24.75991c0.72691,-12.94761 11.81231,-22.85445 24.75991,-22.12755c12.94761,0.72691 22.85445,11.81231 22.12755,24.75991c-0.72691,12.94761 -11.81231,22.85445 -24.75991,22.12755z" data-paper-data="{&quot;index&quot;:null}" fill="#000000" stroke="#000000" stroke-width="0" stroke-linecap="butt"/><path d="M174.03862,132.05103l3.4486,2.79771" fill="none" stroke="#000000" stroke-width="2" stroke-linecap="round"/><path d="M301.72979,157.7913c-13.24257,2.41694 -7.7678,-28.25496 -25.62369,-51.07875c-20.96774,-26.80141 -46.02281,-24.31182 -41.35328,-31.30993c5.90843,-8.85482 33.05782,2.13145 48.97788,20.39535c10.74248,12.32406 31.07654,59.60653 17.9991,61.99333z" data-paper-data="{&quot;index&quot;:null}" fill="#000000" stroke="#000000" stroke-width="0" stroke-linecap="butt"/><path d="M282.52391,137.14008l-4.38398,3.15923" fill="none" stroke="#000000" stroke-width="2" stroke-linecap="round"/><path d="M296.60262,167.55998c-13.44412,0.68035 -4.04054,-29.02337 -18.78793,-53.96874c-17.31752,-29.29275 -42.48394,-30.07122 -36.94685,-36.40516c7.00617,-8.01443 32.50279,6.39768 45.92163,26.57076c9.05473,13.61234 23.08961,63.13129 9.81314,63.80315z" data-paper-data="{&quot;index&quot;:null}" fill="url(#color-3)" stroke="#000000" stroke-width="0" stroke-linecap="butt"/><path d="M178.78029,123.59464c7.38398,-8.3607 11.29667,-1.46444 3.91313,6.89665c-8.60738,9.74695 -4.88539,25.30709 -12.04349,24.22516c-8.08118,-1.22146 1.23055,-23.30932 8.13036,-31.1218z" data-paper-data="{&quot;index&quot;:null}" fill="#4d2900" stroke="#000000" stroke-width="2" stroke-linecap="butt"/><path d="M241.72064,175.03276c2.96171,11.73284 -3.89803,26.73228 -10.65271,29.56359c-6.75468,2.83131 -17.53487,-9.75603 -20.49657,-21.48887c-2.9617,-11.73284 3.01659,-18.16822 9.77127,-20.99952c6.75468,-2.83131 18.4163,1.19198 21.378,12.92482z" fill="#000000" stroke="#000000" stroke-width="2" stroke-linecap="butt"/><g stroke="#000000" stroke-width="0" stroke-linecap="butt"><path d="M158.91732,141.75576c8.65024,-7.04257 11.38417,0.40009 2.7343,7.44312c-10.08361,8.2104 -8.95275,24.1695 -15.83806,21.93308c-7.77321,-2.52481 5.02071,-22.79542 13.10375,-29.3762z" data-paper-data="{&quot;index&quot;:null}" fill="#000000"/><path d="M169.28569,92.69648c16.6014,-17.64686 44.14799,-27.59538 49.71627,-18.5228c4.40071,7.17021 -20.54189,3.73199 -42.5112,29.71875c-18.70881,22.13003 -14.40147,52.98751 -27.54282,50.06999c-12.97748,-2.88114 9.1355,-49.35823 20.33775,-61.26594z" fill="url(#color-4)"/><path d="M171.26349,101.25566c14.34527,-19.52514 40.48645,-32.73219 47.11112,-24.39966c5.23559,6.58534 -19.93974,6.18899 -38.60486,34.64203c-15.89501,24.23028 -7.88728,54.34031 -21.28503,53.03356c-13.23069,-1.29046 3.09889,-50.1008 12.77877,-63.27592z" fill="url(#color-5)"/><path d="M237.96716,73.48684c-0.06418,2.92442 -7.02284,4.98769 -15.54261,4.60845c-8.51977,-0.37924 -15.37438,-3.05739 -15.3102,-5.98181c0.06418,-2.92442 7.02284,-4.98769 15.54261,-4.60845c8.51977,0.37924 15.37438,3.05739 15.3102,5.98181z" fill="#000000"/><path d="M166.45039,129.15922c10.15893,-14.84658 19.46517,-26.89123 24.63312,-35.07377c6.4763,-10.25407 13.23524,-25.4152 20.43537,-22.45977c7.51886,3.08627 0.39959,20.64201 -6.2898,31.23346c-5.1462,8.14808 -20.49979,22.50233 -30.61161,37.28169c-12.67287,18.52259 -2.99336,44.38374 -15.48358,44.05074c-14.10093,-0.37595 -2.84243,-40.18577 7.31651,-55.03236z" fill="url(#color-6)"/><path d="M172.93268,135.81812c8.65231,-15.77221 22.43577,-28.78293 26.77547,-37.43332c5.43833,-10.84034 10.67618,-26.59179 18.13167,-24.3575c7.78554,2.3332 2.42418,20.50307 -3.19309,31.70009c-4.3214,8.61395 -20.76267,20.38532 -29.37469,36.08599c-10.79321,19.67726 -4.32622,44.57384 -18.03892,41.26635c-10.77788,-2.59961 -2.95273,-31.48942 5.69957,-47.26162z" fill="#000000"/><path d="M229.94898,118.04418c-7.12384,-1.28832 1.42494,-14.812 -3.57248,-26.81681c-4.28686,-10.29793 1.64376,-15.56058 5.93115,-5.26287c4.00627,9.62247 5.68384,33.53414 -2.35868,32.07968z" data-paper-data="{&quot;index&quot;:null}" fill="url(#color-7)"/><path d="M293.01358,134.52015c-12.22461,7.02799 -9.98955,-12.52491 -22.98184,-22.49676c-10.36667,-7.95664 -27.40429,-10.48052 -32.71742,-14.98487c-6.9064,-5.85508 -17.08177,-17.95769 -10.20999,-22.26474c6.58047,-4.12447 16.27539,6.33791 22.9618,12.00648c5.33561,4.5234 20.09434,8.82575 30.50925,16.81828c10.4149,7.99251 22.04651,25.39778 12.43823,30.92161z" data-paper-data="{&quot;index&quot;:null}" fill="url(#color-8)"/><path d="M185.74874,115.62494c7.9851,-10.42058 21.12259,-18.40413 25.10216,-24.15677c4.98709,-7.209 9.60756,-17.92951 17.03268,-15.65322c7.75381,2.37705 3.09482,14.80629 -2.05634,22.25249c-3.96283,5.72841 -19.76251,12.5855 -27.71035,22.95893c-9.96082,13.00074 -2.73019,31.30455 -16.35944,27.68824c-10.71229,-2.84233 -3.9938,-22.66908 3.99131,-33.08966z" fill="url(#color-9)"/></g><path d="M252.42733,162.85993c-12.94761,-0.72691 -22.85445,-11.81231 -22.12755,-24.75991c0.72691,-12.94761 11.81231,-22.85445 24.75991,-22.12755c12.94761,0.72691 22.85445,11.81231 22.12755,24.75991c-0.72691,12.94761 -11.81231,22.85445 -24.75991,22.12755z" data-paper-data="{&quot;index&quot;:null}" fill="url(#color-10)" stroke="#000000" stroke-width="0" stroke-linecap="butt"/><path d="M256.21727,151.3258c-9.11372,-0.51167 -16.08706,-8.31459 -15.57539,-17.42831c0.51167,-9.11373 8.31459,-16.08707 17.4283,-15.5754c9.11372,0.51167 16.08706,8.31459 15.57539,17.42831c-0.51167,9.11373 -8.31459,16.08707 -17.4283,15.5754z" data-paper-data="{&quot;index&quot;:null}" fill="#000000" stroke="none" stroke-width="0" stroke-linecap="butt"/><path d="M221.52956,125.47956c1.14049,14.09861 -1.50281,25.53578 -5.17695,28.72392c-4.45185,3.86297 -10.35371,6.06401 -16.70347,5.70752c-6.58599,-0.36976 -12.38521,-3.41966 -16.39835,-8.0315c-1.95431,-2.24587 10.19987,-20.79823 12.70808,-38.45602c0,0 9.58576,-0.3545 13.75864,1.61293c4.34381,2.04803 11.81206,10.44315 11.81206,10.44315z" fill="url(#color-11)" stroke="#000000" stroke-width="0" stroke-linecap="butt"/><path d="M201.61365,112.20074c12.94761,0.72691 22.85445,11.81231 22.12755,24.75991c-0.72691,12.94761 -11.81231,22.85445 -24.75991,22.12755c-12.94761,-0.72691 -22.85445,-11.81231 -22.12755,-24.75991c0.72691,-12.94761 11.81231,-22.85445 24.75991,-22.12755z" data-paper-data="{&quot;index&quot;:null}" fill="url(#color-12)" stroke="#000000" stroke-width="0" stroke-linecap="butt"/><path d="M199.82528,122.67881c9.11372,0.51167 16.08706,8.31459 15.57539,17.42831c-0.51167,9.11373 -8.31459,16.08707 -17.4283,15.5754c-9.11372,-0.51167 -16.08706,-8.31459 -15.57539,-17.42831c0.51167,-9.11373 8.31459,-16.08707 17.4283,-15.5754z" data-paper-data="{&quot;index&quot;:null}" fill="#000000" stroke="none" stroke-width="0" stroke-linecap="butt"/></g></g></svg>